<svg width="50" height="50" viewBox="0 0 50 50" fill="none" xmlns="http://www.w3.org/2000/svg">
<path fill-rule="evenodd" clip-rule="evenodd" d="M25 50C38.8071 50 50 38.8071 50 25C50 11.1929 38.8071 0 25 0C11.1929 0 0 11.1929 0 25C0 38.8071 11.1929 50 25 50ZM35.4543 21.3729C36.2126 20.5698 36.1761 19.3039 35.3729 18.5457C34.5698 17.7874 33.3039 17.8239 32.5457 18.6271L21.7273 30.0866L17.4543 25.5604C16.6961 24.7572 15.4302 24.7208 14.6271 25.479C13.8239 26.2373 13.7874 27.5031 14.5457 28.3063L20.273 34.3729C20.6508 34.7732 21.1769 35 21.7273 35C22.2777 35 22.8037 34.7732 23.1816 34.3729L35.4543 21.3729Z" fill="#1C1C1E"/>
</svg>
